<svg width="39" height="32" viewBox="0 0 39 32" fill="none" xmlns="http://www.w3.org/2000/svg">
<path d="M19.282 24.6152C23.1338 24.6152 26.2563 21.4927 26.2563 17.6409C26.2563 13.789 23.1338 10.6665 19.282 10.6665C15.4301 10.6665 12.3076 13.789 12.3076 17.6409C12.3076 21.4927 15.4301 24.6152 19.282 24.6152Z" fill="white"/>
<path d="M34.0513 6.56386H30.9826C30.6287 6.56137 30.2813 6.46801 29.9738 6.29272C29.6664 6.11744 29.4091 5.86611 29.2267 5.56283L27.2082 2.19873C26.8062 1.53019 26.2385 0.976598 25.5601 0.591409C24.8818 0.206219 24.1155 0.00244314 23.3354 -0.000244141H15.2287C14.4486 0.00244314 13.6824 0.206219 13.004 0.591409C12.3256 0.976598 11.7579 1.53019 11.3559 2.19873L9.33744 5.56283C9.155 5.86611 8.89772 6.11744 8.59026 6.29272C8.28279 6.46801 7.93545 6.56137 7.58154 6.56386H4.51282C3.92007 6.56343 3.33305 6.67986 2.78533 6.9065C2.23761 7.13313 1.73995 7.46553 1.32081 7.88467C0.901673 8.30381 0.569278 8.80147 0.34264 9.34919C0.116003 9.8969 -0.000430369 10.4839 1.19532e-06 11.0767V27.4869C-0.000430369 28.0797 0.116003 28.6667 0.34264 29.2144C0.569278 29.7621 0.901673 30.2598 1.32081 30.6789C1.73995 31.0981 2.23761 31.4305 2.78533 31.6571C3.33305 31.8838 3.92007 32.0002 4.51282 31.9998H34.0513C34.644 32.0002 35.2311 31.8838 35.7788 31.6571C36.3265 31.4305 36.8242 31.0981 37.2433 30.6789C37.6624 30.2598 37.9948 29.7621 38.2215 29.2144C38.4481 28.6667 38.5645 28.0797 38.5641 27.4869V11.0767C38.5645 10.4839 38.4481 9.8969 38.2215 9.34919C37.9948 8.80147 37.6624 8.30381 37.2433 7.88467C36.8242 7.46553 36.3265 7.13313 35.7788 6.9065C35.2311 6.67986 34.644 6.56343 34.0513 6.56386ZM19.2821 27.0767C17.4158 27.0767 15.5915 26.5233 14.0398 25.4864C12.488 24.4496 11.2786 22.9759 10.5644 21.2517C9.85024 19.5276 9.66338 17.6303 10.0275 15.7999C10.3916 13.9695 11.2902 12.2882 12.6099 10.9686C13.9295 9.64896 15.6108 8.75028 17.4412 8.38619C19.2716 8.02211 21.1688 8.20897 22.893 8.92315C24.6172 9.63733 26.0909 10.8468 27.1277 12.3985C28.1645 13.9502 28.7179 15.7745 28.7179 17.6408C28.7149 20.1424 27.7198 22.5407 25.9509 24.3096C24.182 26.0785 21.7837 27.0736 19.2821 27.0767Z" fill="white"/>
</svg>
