<svg width="41" height="35" viewBox="0 0 41 35" fill="none" xmlns="http://www.w3.org/2000/svg">
<path d="M22.1892 34.9998H14.9533V32.4959H22.1892V34.9998ZM26.8577 2.4647C30.1029 2.4647 32.7429 5.10462 32.7429 8.34988C32.4338 16.1516 21.2795 16.1496 20.9718 8.34988C20.9718 5.10462 23.6124 2.4647 26.8577 2.4647ZM4.40031 7.11707C4.40031 3.19273 7.59328 -0.000244141 11.5176 -0.000244141C20.9598 0.390581 20.9571 13.8456 11.5176 14.2344C7.59261 14.2344 4.40031 11.0421 4.40031 7.11707ZM19.5748 11.3987C20.0545 12.5342 20.7925 13.5421 21.73 14.3423H17.0757C18.1079 13.5493 18.9598 12.5459 19.5748 11.3987ZM32.1047 30.0397C32.1047 30.157 32.0581 30.2696 31.9751 30.3525C31.8921 30.4355 31.7796 30.4821 31.6622 30.4821H5.48094C5.3636 30.4821 5.25106 30.4355 5.16809 30.3525C5.08511 30.2696 5.0385 30.157 5.0385 30.0397V16.7959C5.0385 16.6785 5.08511 16.566 5.16809 16.483C5.25106 16.4 5.3636 16.3534 5.48094 16.3534H31.6622C31.7796 16.3534 31.8921 16.4 31.9751 16.483C32.0581 16.566 32.1047 16.6785 32.1047 16.7959V30.0397ZM40.1551 29.3747C40.1551 29.46 40.1259 29.5427 40.0726 29.6092C40.0192 29.6758 39.9448 29.7221 39.8615 29.7407L34.1218 28.3544V18.4812L39.8615 17.0949C40.0291 17.1324 40.1551 17.2826 40.1551 17.4609V29.3747ZM0 20.1819H2.01111V26.653H0V20.1819Z" fill="white"/>
</svg>
