<?xml version="1.0" encoding="utf-8"?>
<!-- Generator: Adobe Illustrator 24.3.0, SVG Export Plug-In . SVG Version: 6.00 Build 0)  -->
<svg version="1.1" id="Layer_1" xmlns="http://www.w3.org/2000/svg" xmlns:xlink="http://www.w3.org/1999/xlink" x="0px" y="0px"
	 viewBox="0 0 333.09 324" style="enable-background:new 0 0 333.09 324;" xml:space="preserve">
<style type="text/css">
	.st0{fill:#FFFFFF;}
</style>
<g>
	<path class="st0" d="M228.12,255.37c-0.23,5.05-0.46,10.1-0.71,15.42c-38.94,0-77.5,0-116.42,0c0.52-4.88,1.56-9.5,1.39-14.07
		c-0.4-10.93-1.42-21.84-2.09-32.76c-0.37-5.98-0.7-11.98-0.73-17.97c-0.01-1.91,1-3.83,1.55-5.78c-9.51-1.62-19.67-2.61-29.4-5.22
		c-10.7-2.87-21.74-5.89-31.3-11.23c-16.58-9.27-15.85-13.11-10.48-28.71c3.27-9.51,9.23-17.41,17.12-23.57
		c14.57-11.37,29.39-22.43,44.38-33.83c1.56,1.28,3.2,2.62,5,4.1c3.43-1.62,6.82-3.42,10.36-4.83c8.48-3.37,16.97-6.71,25.58-9.75
		c3.78-1.33,6.51-2.7,4.53-7.33c-0.13-0.29-0.07-0.66-0.12-0.99c-3.03-19.86,3.6-27.89,26.84-30.67
		c18.27-2.19,32.67,18.45,26.34,35.64c-0.4,1.09-0.79,2.18-1.19,3.3c5.86,2.84,3.33,7.98,2.46,11.74c-0.7,3.05-4.05,5.49-6.19,8.23
		c-0.53,0.68-1.22,1.41-1.37,2.2c-0.43,2.29-0.59,4.62-0.92,6.93c-0.63,4.37-0.55,7.88,4.97,9.52c2.42,0.71,3.99,4.08,6.11,6.07
		c1.49,1.4,3.07,2.96,4.91,3.7c5.86,2.36,11.95,4.14,17.78,6.57c9.3,3.89,16.07,10.2,19.49,20.14c2.48,7.22,6.13,14.03,9.18,21.05
		c4.7,10.83,7.81,22.24,7.24,33.96c-0.7,14.38,2.11,28.12,4.85,41.98c0.74,3.74,1.38,7.49,2.19,11.89c-6.32,0-12.26,0-18.21,0
		c-5.97,0-11.94,0-18.07,0c-1.41-5.51-2.72-10.62-4.03-15.73C228.81,255.37,228.46,255.37,228.12,255.37z M98.33,133.8
		c-0.75,3.73-1.46,7.29-2.22,11.06c3.09-0.32,6.7,0.08,9.61-1.16c6.52-2.8,13.22-2.97,20-2.59c5.36,0.3,10-0.2,13.72-4.86
		c1.53-1.91,4.51-2.67,6.85-3.9c0.85-0.45,2.21-0.49,2.61-1.15c3.22-5.3,5.99-10.73,3.04-17.18c-2.5-5.46-4.9-10.96-7.34-16.44
		c-0.6-0.21-1.21-0.41-1.81-0.62c-1.97,2.66-3.91,5.35-5.94,7.97c-1.1,1.42-2.23,2.88-3.6,4.03c-3.14,2.64-6.42,5.13-9.67,7.64
		c-0.76,0.59-1.73,1.58-2.44,1.46c-4.61-0.76-6.81,2.74-9.68,5.11C107.1,126.75,102.69,130.27,98.33,133.8z"/>
</g>
</svg>
